<mxfile host="65bd71144e">
    <diagram id="ZyygWKpWmkW88z8v6iBf" name="Page-1">
        <mxGraphModel dx="777" dy="550" grid="1" gridSize="10" guides="1" tooltips="1" connect="1" arrows="1" fold="1" page="1" pageScale="1" pageWidth="850" pageHeight="1100" math="0" shadow="0">
            <root>
                <mxCell id="0"/>
                <mxCell id="1" parent="0"/>
                <mxCell id="2" value="Deck" style="whiteSpace=wrap;html=1;rounded=0;glass=0;shadow=0;fillColor=#0050ef;fontColor=#ffffff;strokeColor=#001DBC;" vertex="1" parent="1">
                    <mxGeometry x="360" y="520" width="80" height="40" as="geometry"/>
                </mxCell>
                <mxCell id="3" value="Plugins" style="whiteSpace=wrap;html=1;" vertex="1" parent="1">
                    <mxGeometry x="480" y="600" width="80" height="40" as="geometry"/>
                </mxCell>
                <mxCell id="4" value="Config" style="whiteSpace=wrap;html=1;" vertex="1" parent="1">
                    <mxGeometry x="360" y="680" width="80" height="40" as="geometry"/>
                </mxCell>
                <mxCell id="5" value="Web interface" style="whiteSpace=wrap;html=1;" vertex="1" parent="1">
                    <mxGeometry x="240" y="440" width="80" height="40" as="geometry"/>
                </mxCell>
                <mxCell id="7" value="Frontend" style="rounded=1;whiteSpace=wrap;html=1;" vertex="1" parent="1">
                    <mxGeometry x="240" y="280" width="80" height="40" as="geometry"/>
                </mxCell>
                <mxCell id="10" value="" style="edgeStyle=none;orthogonalLoop=1;jettySize=auto;html=1;endArrow=none;endFill=0;" edge="1" parent="1" source="4" target="2">
                    <mxGeometry width="80" relative="1" as="geometry">
                        <mxPoint x="390" y="530" as="sourcePoint"/>
                        <mxPoint x="350" y="490" as="targetPoint"/>
                        <Array as="points"/>
                    </mxGeometry>
                </mxCell>
                <mxCell id="11" value="" style="edgeStyle=none;orthogonalLoop=1;jettySize=auto;html=1;endArrow=none;endFill=0;" edge="1" parent="1" source="2" target="3">
                    <mxGeometry width="80" relative="1" as="geometry">
                        <mxPoint x="400" y="540" as="sourcePoint"/>
                        <mxPoint x="360" y="500" as="targetPoint"/>
                        <Array as="points"/>
                    </mxGeometry>
                </mxCell>
                <mxCell id="12" value="" style="endArrow=classic;html=1;exitX=0.75;exitY=1;exitDx=0;exitDy=0;entryX=0.75;entryY=0;entryDx=0;entryDy=0;" edge="1" parent="1" source="7" target="5">
                    <mxGeometry width="50" height="50" relative="1" as="geometry">
                        <mxPoint x="430" y="250" as="sourcePoint"/>
                        <mxPoint x="430" y="390" as="targetPoint"/>
                    </mxGeometry>
                </mxCell>
                <mxCell id="13" value="" style="endArrow=classic;html=1;exitX=0.5;exitY=0;exitDx=0;exitDy=0;entryX=0.5;entryY=1;entryDx=0;entryDy=0;" edge="1" parent="1" source="5" target="7">
                    <mxGeometry width="50" height="50" relative="1" as="geometry">
                        <mxPoint x="310" y="330" as="sourcePoint"/>
                        <mxPoint x="310" y="450" as="targetPoint"/>
                    </mxGeometry>
                </mxCell>
                <mxCell id="14" value="request" style="text;html=1;align=center;verticalAlign=middle;resizable=0;points=[];autosize=1;strokeColor=none;fillColor=none;" vertex="1" parent="1">
                    <mxGeometry x="310" y="360" width="60" height="30" as="geometry"/>
                </mxCell>
                <mxCell id="17" value="responce" style="text;html=1;align=center;verticalAlign=middle;resizable=0;points=[];autosize=1;strokeColor=none;fillColor=none;" vertex="1" parent="1">
                    <mxGeometry x="205" y="360" width="70" height="30" as="geometry"/>
                </mxCell>
                <mxCell id="18" value="" style="endArrow=classic;html=1;" edge="1" parent="1" source="5" target="2">
                    <mxGeometry width="50" height="50" relative="1" as="geometry">
                        <mxPoint x="340" y="560" as="sourcePoint"/>
                        <mxPoint x="390" y="510" as="targetPoint"/>
                        <Array as="points">
                            <mxPoint x="350" y="490"/>
                        </Array>
                    </mxGeometry>
                </mxCell>
                <mxCell id="19" value="" style="endArrow=classic;html=1;" edge="1" parent="1" source="2" target="5">
                    <mxGeometry width="50" height="50" relative="1" as="geometry">
                        <mxPoint x="340" y="560" as="sourcePoint"/>
                        <mxPoint x="390" y="510" as="targetPoint"/>
                        <Array as="points">
                            <mxPoint x="330" y="510"/>
                        </Array>
                    </mxGeometry>
                </mxCell>
                <mxCell id="20" value="events" style="text;html=1;align=center;verticalAlign=middle;resizable=0;points=[];autosize=1;strokeColor=none;fillColor=none;" vertex="1" parent="1">
                    <mxGeometry x="330" y="465" width="60" height="30" as="geometry"/>
                </mxCell>
                <mxCell id="21" value="state" style="text;html=1;align=center;verticalAlign=middle;resizable=0;points=[];autosize=1;strokeColor=none;fillColor=none;" vertex="1" parent="1">
                    <mxGeometry x="285" y="505" width="50" height="30" as="geometry"/>
                </mxCell>
            </root>
        </mxGraphModel>
    </diagram>
</mxfile>